<?xml version="1.0" encoding="utf-8" standalone="no"?>
<!DOCTYPE svg PUBLIC "-//W3C//DTD SVG 1.1//EN"
  "http://www.w3.org/Graphics/SVG/1.1/DTD/svg11.dtd">
<svg xmlns:xlink="http://www.w3.org/1999/xlink" width="360pt" height="360pt" viewBox="0 0 360 360" xmlns="http://www.w3.org/2000/svg" version="1.1">
 <metadata>
  <rdf:RDF xmlns:dc="http://purl.org/dc/elements/1.1/" xmlns:cc="http://creativecommons.org/ns#" xmlns:rdf="http://www.w3.org/1999/02/22-rdf-syntax-ns#">
   <cc:Work>
    <dc:type rdf:resource="http://purl.org/dc/dcmitype/StillImage"/>
    <dc:date>2024-12-11T20:18:26.018730</dc:date>
    <dc:format>image/svg+xml</dc:format>
    <dc:creator>
     <cc:Agent>
      <dc:title>Matplotlib v3.9.3, https://matplotlib.org/</dc:title>
     </cc:Agent>
    </dc:creator>
   </cc:Work>
  </rdf:RDF>
 </metadata>
 <defs>
  <style type="text/css">*{stroke-linejoin: round; stroke-linecap: butt}</style>
 </defs>
 <g id="figure_1">
  <g id="axes_1">
   <g id="patch_1">
    <path d="M 0 360 
L 25.714286 360 
L 25.714286 0 
L 0 0 
z
" style="fill: #ffffff"/>
   </g>
   <g id="patch_2">
    <path d="M 0 360 
L 25.714286 360 
L 25.714286 180 
L 0 180 
z
" clip-path="url(#p98158ac6c1)" style="fill: #ec4899; stroke: #ec4899; stroke-linejoin: miter"/>
   </g>
   <g id="patch_3">
    <path d="M 0 180 
L 25.714286 180 
L 25.714286 72 
L 0 72 
z
" clip-path="url(#p98158ac6c1)" style="fill: #0284c7; stroke: #0284c7; stroke-linejoin: miter"/>
   </g>
   <g id="patch_4">
    <path d="M 0 72 
L 25.714286 72 
L 25.714286 18 
L 0 18 
z
" clip-path="url(#p98158ac6c1)" style="fill: #16a34a; stroke: #16a34a; stroke-linejoin: miter"/>
   </g>
   <g id="patch_5">
    <path d="M 0 18 
L 25.714286 18 
L 25.714286 0 
L 0 0 
z
" clip-path="url(#p98158ac6c1)" style="fill: #f59e0b; stroke: #f59e0b; stroke-linejoin: miter"/>
   </g>
   <g id="matplotlib.axis_1"/>
   <g id="matplotlib.axis_2"/>
  </g>
  <g id="axes_2">
   <g id="patch_6">
    <path d="M 25.714286 360 
L 334.285714 360 
L 334.285714 0 
L 25.714286 0 
z
" style="fill: #ffffff"/>
   </g>
   <g id="patch_7">
    <path d="M 25.714286 360 
C 180 360 180 360 334.285714 360 
L 334.285714 252 
C 180 252 180 180 25.714286 180 
" clip-path="url(#p4bc9b0f62a)" style="fill: #ec4899; opacity: 0.5"/>
   </g>
   <g id="patch_8">
    <path d="M 25.714286 180 
C 180 180 180 252 334.285714 252 
L 334.285714 198 
C 180 198 180 72 25.714286 72 
" clip-path="url(#p4bc9b0f62a)" style="fill: #0284c7; opacity: 0.5"/>
   </g>
   <g id="patch_9">
    <path d="M 25.714286 72 
C 180 72 180 198 334.285714 198 
L 334.285714 36 
C 180 36 180 18 25.714286 18 
" clip-path="url(#p4bc9b0f62a)" style="fill: #16a34a; opacity: 0.5"/>
   </g>
   <g id="patch_10">
    <path d="M 25.714286 18 
C 180 18 180 36 334.285714 36 
L 334.285714 0 
C 180 0 180 0 25.714286 0 
" clip-path="url(#p4bc9b0f62a)" style="fill: #f59e0b; opacity: 0.5"/>
   </g>
   <g id="matplotlib.axis_3"/>
   <g id="matplotlib.axis_4"/>
  </g>
  <g id="axes_3">
   <g id="patch_11">
    <path d="M 334.285714 360 
L 360 360 
L 360 0 
L 334.285714 0 
z
" style="fill: #ffffff"/>
   </g>
   <g id="patch_12">
    <path d="M 334.285714 360 
L 360 360 
L 360 252 
L 334.285714 252 
z
" clip-path="url(#p74ee55a662)" style="fill: #ec4899"/>
   </g>
   <g id="patch_13">
    <path d="M 334.285714 252 
L 360 252 
L 360 198 
L 334.285714 198 
z
" clip-path="url(#p74ee55a662)" style="fill: #0284c7"/>
   </g>
   <g id="patch_14">
    <path d="M 334.285714 198 
L 360 198 
L 360 36 
L 334.285714 36 
z
" clip-path="url(#p74ee55a662)" style="fill: #16a34a"/>
   </g>
   <g id="patch_15">
    <path d="M 334.285714 36 
L 360 36 
L 360 0 
L 334.285714 0 
z
" clip-path="url(#p74ee55a662)" style="fill: #f59e0b"/>
   </g>
   <g id="matplotlib.axis_5"/>
   <g id="matplotlib.axis_6"/>
  </g>
 </g>
 <defs>
  <clipPath id="p98158ac6c1">
   <rect x="0" y="0" width="25.714286" height="360"/>
  </clipPath>
  <clipPath id="p4bc9b0f62a">
   <rect x="25.714286" y="0" width="308.571429" height="360"/>
  </clipPath>
  <clipPath id="p74ee55a662">
   <rect x="334.285714" y="0" width="25.714286" height="360"/>
  </clipPath>
 </defs>
</svg>
